<?xml version="1.0" encoding="utf-8"?>
<!-- Generator: Adobe Illustrator 27.5.0, SVG Export Plug-In . SVG Version: 6.00 Build 0)  -->
<svg version="1.1" id="Layer_1" xmlns="http://www.w3.org/2000/svg" xmlns:xlink="http://www.w3.org/1999/xlink" x="0px" y="0px"
	 viewBox="0 0 474.24 153.12" style="enable-background:new 0 0 474.24 153.12;" xml:space="preserve">
<style type="text/css">
	.st0{fill-rule:evenodd;clip-rule:evenodd;fill:#061B3E;}
</style>
<g>
	<path class="st0" d="M16.73,28.39c1.03-0.96,2.71-0.86,3.26-0.67c0.55,0.18,1.16,0.52,1.23,0.7c-0.95,0-2.05,0.64-3.23,0.97
		c-1.25,0.4-2.47,0.48-2.46,0.15C15.54,29.53,16,29.08,16.73,28.39 M22.13,20.5c0.06-0.23,0.2-0.22,0.23,0.05
		c0.1,1.21,1,2.26,1.48,3.21c0.62,1.21,0.27,2.52,0.27,2.52c-0.06,0.1-1.03-0.71-1.62-1.54C21.29,23.04,21.97,21.12,22.13,20.5
		 M23.79,35.67c-0.94,1.07-1.51,1.23-2.17,2.39c-0.51,0.88-1.27,0.97-1.26,0.83c0.05-0.46,0.03-1.67,1.13-3.11
		c1.1-1.44,2.87-1.83,2.87-1.83S24.13,35.28,23.79,35.67 M26.09,28.7c1.26-1.03,2.83-1.21,3.49-0.4c0.67,0.81,0.18,2.31-1.08,3.34
		c-1.26,1.04-2.82,1.22-3.49,0.41C24.34,31.23,24.82,29.74,26.09,28.7 M31.24,22.08c1.01-1.38,2.23-1.61,2.6-1.88
		c0.31-0.22,0.2,0.97-0.6,1.87c-0.81,0.9-0.97,1.21-1.31,1.99c-0.41,0.93-2,1.32-2.06,1.19C29.87,25.25,30.23,23.45,31.24,22.08
		 M30.64,33.57c-0.88,0.84-1.66,0.92-2.77,0.89c-0.8-0.01-1.45-0.25-1.48-0.31c-0.05-0.1,0.28-0.17,0.65-0.27
		c1.06-0.29,3.17-1.1,4.05-3.22c0.21-0.51,0.28-0.86,0.35-0.87c0.07-0.01,0.23,0.62,0.23,0.89C31.7,31.41,31.71,32.54,30.64,33.57
		 M14.33,30.49c0.97,0.49,0.88,1.39,3.08,2.57c1.27,0.69,3.36,0.44,4.25,0.07c1.08-0.45,1.35,0.14,0.43,0.69
		c-1.74,1.04-2.58,2.94-2.57,5.06c0.01,0.84-0.73,1.57-0.14,2.16c0.28,0.28,0.7-0.06,1.39-0.15c1.06-0.13,3.33,0.51,5.38-1.06
		c1.3-0.99,1.36-2.75,1.61-3.34c0.33-0.75,0.58-0.66,0.73-0.26c0.14,0.4,1.41,2.24,4.44,2.38c1.83,0.08,2.14,0,3.02,0.4
		c0.86,0.39,1.72-0.17,1.02-1.02c-0.77-0.93-0.03-1.35-0.8-4.21c-0.26-0.97-1.53-2.95-3.35-3.48c-0.66-0.19-0.59-0.54,0-0.82
		c2.18-1.04,4.46-4.65,3.02-8.5c-0.43-1.14,0.05-1.86-0.43-2.18c-0.34-0.23-0.91-0.08-1.23,0.3c-0.79,0.94-4.09,0.77-5.14,3.85
		c-0.35,1.04-0.15,2.12-0.77,2.26c-0.43,0.1-0.45-0.65-0.43-1.11c0.05-1.5-1.02-3.48-2.19-4.16c-1.02-0.59-2.15-0.83-2.83-1.42
		c-0.53-0.46-1.3-0.53-1.25,0.74c0.05,1.33-1.92,4.03,0.37,7.02c0.14,0.22,0.57,0.5,0.48,0.83c-0.02,0.06-0.3,0.42-0.57,0.31
		c-0.64-0.25-1.55-1.2-3.46-0.77s-3.12,2.23-4.07,2.49C13.74,29.3,13.52,30.08,14.33,30.49"/>
	<path class="st0" d="M35.84,30.16c2.2,1.48,2.71,4.56,2.6,6.59c-0.01,0.21,0.88,0.18,1.37,0.05c0.69-0.18,5.77,2.3,8.63,5.11
		c0.29,0.25,0.96-0.2,0.23-1.33c-2.31-3.55-5.15-4.84-6.64-6.06c-1.49-1.23-1.45-1.67-2.05-3.01c-0.93-2.06-2.08-3.22-2.97-3.24
		c-0.11,0-0.29,0.53-1.08,1.12C35.59,29.63,35.32,29.86,35.84,30.16 M85.48,20.2c0.38,0.26,1.6,0.5,2.61,1.88
		c1.01,1.37,1.37,3.17,1.37,3.17c-0.06,0.13-1.66-0.26-2.06-1.19c-0.34-0.78-0.5-1.09-1.31-1.99C85.28,21.17,85.17,19.98,85.48,20.2
		 M89.74,28.3c0.66-0.81,2.23-0.63,3.49,0.4c1.26,1.03,1.75,2.53,1.08,3.35c-0.66,0.81-2.23,0.63-3.49-0.41
		C89.57,30.61,89.08,29.11,89.74,28.3 M97.84,35.78c1.1,1.44,1.08,2.65,1.13,3.11c0.01,0.13-0.75,0.05-1.26-0.83
		c-0.66-1.15-1.23-1.31-2.17-2.39c-0.34-0.39-0.57-1.72-0.57-1.72S96.73,34.34,97.84,35.78 M95.48,23.76c0.48-0.95,1.39-2,1.48-3.21
		c0.02-0.27,0.17-0.28,0.23-0.05c0.16,0.63,0.84,2.54-0.35,4.24c-0.59,0.83-1.56,1.64-1.62,1.54
		C95.22,26.28,94.86,24.97,95.48,23.76 M91.45,34.46c-1.12,0.02-1.89-0.05-2.77-0.89c-1.06-1.02-1.06-2.16-1.04-2.88
		c0.01-0.28,0.16-0.9,0.24-0.89c0.07,0.01,0.15,0.35,0.35,0.87c0.88,2.13,3,2.93,4.05,3.22c0.38,0.1,0.69,0.17,0.64,0.27
		C92.9,34.21,92.25,34.45,91.45,34.46 M99.33,27.72c0.55-0.18,2.24-0.29,3.26,0.68c0.73,0.68,1.2,1.14,1.2,1.14
		c0.01,0.33-1.22,0.26-2.47-0.15c-1.19-0.33-2.28-0.96-3.23-0.97C98.17,28.23,98.78,27.9,99.33,27.72 M86.49,29.48
		c0.59,0.28,0.66,0.63,0,0.82c-1.81,0.53-3.09,2.51-3.35,3.48c-0.77,2.86-0.03,3.28-0.79,4.21c-0.71,0.84,0.16,1.41,1.02,1.02
		c0.87-0.4,1.18-0.31,3.01-0.4c3.03-0.14,4.3-1.98,4.44-2.38s0.4-0.49,0.73,0.26c0.26,0.58,0.31,2.35,1.62,3.34
		c2.04,1.56,4.32,0.93,5.38,1.06c0.68,0.08,1.11,0.43,1.39,0.15c0.58-0.58-0.15-1.32-0.14-2.16c0.01-2.11-0.83-4.02-2.57-5.06
		c-0.92-0.55-0.65-1.13,0.43-0.69c0.88,0.37,2.98,0.62,4.25-0.07c2.2-1.18,2.11-2.09,3.08-2.57c0.8-0.41,0.58-1.2,0-1.36
		c-0.95-0.26-2.16-2.06-4.06-2.49c-1.91-0.42-2.82,0.52-3.46,0.77c-0.28,0.11-0.56-0.25-0.57-0.31c-0.08-0.32,0.34-0.6,0.48-0.83
		c2.29-2.99,0.32-5.68,0.38-7.02c0.05-1.27-0.72-1.2-1.25-0.74c-0.69,0.59-1.81,0.83-2.84,1.42c-1.16,0.67-2.24,2.66-2.19,4.16
		c0.02,0.47,0,1.21-0.43,1.11c-0.62-0.14-0.41-1.22-0.77-2.26c-1.05-3.08-4.35-2.91-5.14-3.85c-0.32-0.38-0.89-0.52-1.23-0.3
		c-0.49,0.31-0.01,1.03-0.43,2.18C82.03,24.82,84.32,28.44,86.49,29.48"/>
	<path class="st0" d="M70.66,40.58c-0.73,1.13-0.06,1.58,0.23,1.33c2.86-2.81,7.94-5.29,8.63-5.11c0.49,0.13,1.39,0.16,1.38-0.05
		c-0.11-2.03,0.4-5.11,2.59-6.59c0.52-0.29,0.24-0.53-0.08-0.77c-0.79-0.59-0.97-1.12-1.08-1.12c-0.89,0.02-2.05,1.17-2.97,3.24
		c-0.6,1.33-0.57,1.78-2.05,3.01C75.81,35.74,72.96,37.03,70.66,40.58 M62.43,18.52c0.36-0.64,1.23-1.59,2.2-1.93
		c1.02-0.36,1.79-0.3,2.06-0.29c0.32,0.01,0.24,0.08-0.03,0.18c-1.78,1.21-2.44,3.22-3.17,4.25c-0.54,0.76-1.66,0.92-1.7,0.73
		C61.71,20.96,61.97,19.34,62.43,18.52 M59.9,32.99L59.81,33H59.8l-0.02,0h-0.06c-0.03,0-0.06,0-0.08-0.01
		c-3.31-0.02-4.49-3.03-3.86-3.3c0,0,0.81,1.44,3.75,1.58l0.04,0l0.11,0h0.04l0.11,0c0.01,0,0.03,0,0.04,0
		c2.94-0.14,3.88-1.58,3.88-1.58C64.38,29.96,63.2,32.97,59.9,32.99 M52.64,16.47c-0.25-0.15-0.35-0.13-0.03-0.18
		c0.31-0.04,1.01-0.07,2.02,0.29c0.97,0.34,1.84,1.29,2.2,1.93c0.47,0.82,0.77,2.44,0.67,2.93c-0.04,0.18-1.34-0.33-1.88-1.1
		C54.87,19.26,54.08,17.35,52.64,16.47 M59.65,24.56h0.02c1.49,0.03,2.7,0.98,2.7,2.16c0,1.18-1.2,2.14-2.7,2.16h-0.02
		c-1.5-0.03-2.7-0.99-2.7-2.16C56.95,25.54,58.16,24.59,59.65,24.56 M67.48,25.22c0.56-0.32,1.86-1,3.37-0.31
		c0.6,0.27,1.48,0.83,2.08,1.11c0.7,0.31,1.07,0.31,1.5,0.45c0.11,0.04-0.03,0.15-0.16,0.18c-0.62,0.13-1.38,1.02-4.4-0.02
		c-0.94-0.33-1.77-1.06-2.31-1.11C67.33,25.5,67.28,25.33,67.48,25.22 M51.69,25.54c-0.55,0.04-1.4,0.76-2.33,1.1
		c-2.3,0.84-3.46,0.26-4.39,0.02c-0.14-0.03-0.19-0.17-0.08-0.21c0.43-0.13,0.8-0.13,1.5-0.45c0.6-0.27,1.48-0.83,2.08-1.11
		c1.51-0.69,2.8-0.01,3.37,0.31C52.04,25.33,51.91,25.53,51.69,25.54 M59.78,21.69c-0.03,0.03-0.07,0.04-0.11,0.05v-0.01
		c0,0-0.01,0-0.01,0l-0.01,0v0.01c-0.04-0.01-0.08-0.02-0.11-0.05c-0.17-0.14-0.12-0.57-0.25-1.34c-0.64-3.62-2.64-5.55-6.48-5.74
		c-1.91-0.1-2.05-0.84-2.75-0.57c-0.62,0.24-0.11,0.83-0.22,1.99c-0.22,2.29,0,4.27,2.29,6.41c0.88,0.75,0.75,1.59,0.35,1.46
		c-0.29-0.09-0.86-0.38-1.44-0.59c-2.58-0.93-4.54,0.8-5.62,1.56c-0.45,0.32-0.75,0.76-1.5,0.95c-1.04,0.26-1,1.21-0.04,1.55
		c1.13,0.4,1.1,1.29,2.47,2.89c2.03,2.39,5.07,2.12,6.93,1.74c0.99-0.26,1.15,0.09,1.2,0.21c0.23,0.63-1.67,2.79,1,5.82
		c1.35,1.53,2.8,2.15,3.28,3.06c0.28,0.53,0.3,0.81,0.79,0.87v0.01l0.08,0l0.01,0h0.04c0.03,0,0.06,0,0.08,0v-0.01
		c0.5-0.06,0.52-0.34,0.79-0.87c0.48-0.92,1.93-1.54,3.28-3.07c2.67-3.03,0.77-5.19,1-5.82c0.04-0.12,0.21-0.47,1.2-0.21
		c1.85,0.38,4.9,0.64,6.93-1.74c1.37-1.6,1.34-2.49,2.47-2.89c0.97-0.34,1.01-1.29-0.04-1.55c-0.74-0.18-1.05-0.63-1.5-0.95
		c-1.08-0.76-3.04-2.49-5.62-1.56c-0.58,0.21-1.15,0.49-1.44,0.59c-0.41,0.13-0.54-0.7,0.35-1.46c2.3-2.14,2.51-4.12,2.29-6.4
		c-0.11-1.16,0.4-1.75-0.22-1.99c-0.7-0.27-0.84,0.47-2.75,0.57c-3.84,0.19-5.84,2.12-6.49,5.74C59.9,21.12,59.96,21.55,59.78,21.69
		"/>
	<path class="st0" d="M111.52,89.61c0,9.32-1.53,19.55-12.61,31.24c-8.88,9.36-28.55,20.11-39.35,24.94
		c-19.75-8.75-34.62-19.91-39.38-24.94C9.09,109.16,7.56,98.93,7.56,89.61V15.28c21.41-9.02,49.26-8.59,51.8-8.54
		c0.06,0.01,0.12,0.01,0.19,0.01c0.06,0,0.13,0,0.19-0.01c2.54-0.06,30.39-0.48,51.79,8.54V89.61z M59.54,3.64
		c-2.3-0.07-31.5-0.74-54.15,9.19l-0.93,0.41v76.37c0,9.96,1.63,20.89,13.46,33.37c9.39,9.91,30.14,21.16,41.01,25.92l0.63,0.28
		l0.63-0.28c10.87-4.78,31.61-16.04,40.98-25.92c11.83-12.48,13.47-23.42,13.47-33.37V13.24l-0.93-0.4
		C91.04,2.91,61.84,3.57,59.54,3.64z"/>
	<path class="st0" d="M116.73,89.61c0,10.39-1.7,21.81-14.04,34.82c-9.58,10.1-30.63,21.55-41.66,26.4l-1.47,0.65l-1.47-0.65
		c-11.02-4.83-32.08-16.26-41.69-26.4C4.06,111.42,2.36,100.01,2.36,89.61V11.87l2.19-0.96C23.91,2.42,47.58,1.5,56.85,1.5
		c1.37,0,2.3,0.02,2.69,0.03c0.39-0.01,1.32-0.03,2.68-0.03c9.28,0,32.95,0.92,52.32,9.4l2.19,0.96L116.73,89.61L116.73,89.61z
		 M117.33,10.49l-2.19-0.96C95.52,0.93,71.6,0,62.22,0c-1.38,0-2.31-0.01-2.68,0c-0.37-0.01-1.3,0-2.69,0
		C47.48,0,23.57,0.93,3.94,9.54l-2.19,0.96l-0.9,0.39v78.73c0,10.7,1.75,22.45,14.45,35.85c9.76,10.3,31.05,21.87,42.18,26.74
		l1.47,0.65l0.6,0.27l0.6-0.27l1.47-0.65c11.13-4.89,32.41-16.48,42.14-26.74c12.7-13.4,14.45-25.15,14.45-35.86V10.88L117.33,10.49
		L117.33,10.49z"/>
	<path class="st0" d="M66.85,87.47c0.08,0,0.17-0.01,0.27-0.03c0.69-0.11,1.39-0.17,2.1-0.16c1.83,0,3.89,0.33,6.11,0.99
		c1.84,0.54,3.71,0.72,4.67,0.78L80,88.98c-1.46-0.35-2.89-0.8-4.28-1.36c-2.04-0.8-3.96-1.3-5.71-1.48
		c-0.28-0.01-0.56-0.02-0.85-0.02c-0.69,0-1.37,0.05-2.09,0.16c-0.41,0.07-0.82,0.18-1.21,0.32C65.87,86.61,66.06,87.47,66.85,87.47
		 M66.85,83.19c0.08,0,0.17-0.01,0.27-0.03c0.69-0.11,1.39-0.17,2.1-0.16c1.82,0,3.88,0.33,6.11,0.99c1.34,0.39,2.91,0.66,4.67,0.78
		L80,84.7c-1.46-0.35-2.89-0.8-4.28-1.35c-2.04-0.8-3.96-1.3-5.71-1.48c-0.28-0.02-0.56-0.02-0.85-0.02c-0.7,0-1.4,0.05-2.09,0.16
		c-0.41,0.07-0.82,0.18-1.21,0.32C65.87,82.33,66.06,83.19,66.85,83.19 M66.85,78.91c0.09,0,0.18-0.01,0.27-0.03
		c0.69-0.11,1.38-0.17,2.1-0.17c1.83,0,3.89,0.33,6.11,0.99c1.83,0.54,3.87,0.73,4.67,0.78L80,80.42c-1.46-0.35-2.89-0.8-4.28-1.36
		c-2.04-0.8-3.96-1.3-5.71-1.48c-0.28-0.02-0.56-0.02-0.85-0.03c-0.69,0-1.37,0.05-2.09,0.16c-0.41,0.07-0.82,0.18-1.21,0.32
		C65.87,78.05,66.06,78.91,66.85,78.91 M66.85,91.75c0.08,0,0.17-0.01,0.27-0.03c0.69-0.11,1.39-0.17,2.1-0.16
		c1.82,0,3.88,0.33,6.11,0.99c1.33,0.39,2.9,0.65,4.67,0.79L80,93.26c-1.46-0.35-2.89-0.8-4.28-1.35c-2.03-0.8-3.96-1.3-5.71-1.48
		c-0.28-0.01-0.56-0.02-0.85-0.02c-0.69,0-1.37,0.05-2.09,0.16c-0.41,0.07-0.82,0.18-1.21,0.32C65.87,90.89,66.06,91.75,66.85,91.75
		 M35.51,63.52c0.64,0.13,0.76,0.14,1.65,0.17l0.12,0.01c0.11,0,0.22,0.01,0.33,0.01h0.14c3.42-0.16,4.43-1.32,4.42-1.33
		c-0.01-0.01-0.02-0.03-0.05-0.03h0c-0.58,0.13-1.17,0.22-1.76,0.27c-0.94,0.12-1.84,0.19-2.67,0.19c-1.79,0-2.86-0.29-3.33-0.47
		l-0.13-0.04l-0.05,0.01c-0.01,0.01-0.02,0.03-0.01,0.04C34.18,62.35,34.32,63.29,35.51,63.52 M75.33,96.83
		c1.86,0.55,3.88,0.73,4.66,0.78L80,97.54c-1.46-0.35-2.88-0.8-4.28-1.35c-2.04-0.8-3.96-1.3-5.71-1.48
		c-0.28-0.01-0.57-0.02-0.85-0.02c-0.7,0-1.37,0.05-2.09,0.16c-0.41,0.07-0.82,0.18-1.21,0.32c0,0.01,0.19,0.87,0.98,0.87
		c0.09,0,0.18-0.01,0.27-0.04c0.69-0.11,1.39-0.16,2.09-0.16C71.04,95.84,73.1,96.17,75.33,96.83 M35.51,67.85
		c0.64,0.13,0.76,0.14,1.65,0.18l0.12,0c0.11,0.01,0.22,0.01,0.33,0.01l0.14,0c3.42-0.16,4.43-1.32,4.42-1.33
		c-0.01-0.01-0.02-0.02-0.05-0.02h0c-0.58,0.13-1.17,0.22-1.76,0.26c-0.94,0.12-1.84,0.19-2.67,0.19c-1.79,0-2.86-0.3-3.33-0.47
		l-0.13-0.04l-0.05,0.01c-0.01,0.01-0.02,0.03-0.01,0.04C34.18,66.69,34.32,67.63,35.51,67.85 M18.88,82.46
		c0.15,0.19,0.23,0.42,0.23,0.68c0,0.63-0.53,1.13-1.17,1.13c-0.62,0.01-1.13-0.47-1.18-1.08c-0.11,0.21-0.16,0.45-0.16,0.69
		c0,0.86,0.72,1.56,1.61,1.56c0.87,0.01,1.59-0.69,1.61-1.56C19.82,83.26,19.45,82.71,18.88,82.46 M18.88,97.21
		c0.15,0.19,0.23,0.42,0.23,0.68c0,0.63-0.53,1.14-1.17,1.14c-0.62,0.01-1.13-0.47-1.18-1.08c-0.11,0.21-0.16,0.45-0.16,0.69
		c0,0.86,0.72,1.56,1.61,1.56c0.87,0.01,1.59-0.68,1.61-1.56C19.82,98.01,19.45,97.45,18.88,97.21 M66.85,74.63
		c0.08,0,0.17-0.01,0.26-0.03c0.7-0.11,1.4-0.17,2.11-0.16c1.82,0,3.88,0.33,6.11,0.99c1.35,0.4,2.92,0.66,4.67,0.79L80,76.14
		c-1.46-0.35-2.89-0.8-4.28-1.35c-2.03-0.8-3.96-1.3-5.71-1.48c-0.28-0.01-0.56-0.02-0.85-0.02c-0.69,0-1.37,0.05-2.09,0.16
		c-0.41,0.07-0.82,0.18-1.22,0.32C65.87,73.77,66.06,74.63,66.85,74.63 M18.88,67.72c0.15,0.19,0.23,0.42,0.23,0.68
		c0,0.63-0.53,1.13-1.17,1.13c-0.62,0.01-1.14-0.47-1.18-1.08c-0.11,0.21-0.16,0.45-0.16,0.69c0,0.86,0.72,1.56,1.61,1.56
		c0.87,0.01,1.59-0.68,1.61-1.56C19.82,68.52,19.45,67.96,18.88,67.72 M66.85,61.78c0.09,0,0.17-0.01,0.26-0.03
		c0.69-0.11,1.38-0.17,2.11-0.17c1.82,0,3.89,0.33,6.11,0.99c1.75,0.52,3.51,0.71,4.66,0.79l0.01-0.07
		c-1.46-0.35-2.88-0.8-4.28-1.36c-2.04-0.8-3.95-1.3-5.71-1.48c-0.92-0.05-1.85-0.02-2.77,0.11l-0.08,0.01l-0.08,0.02
		c-0.41,0.08-0.82,0.18-1.22,0.32C65.87,60.92,66.06,61.78,66.85,61.78 M66.85,70.35c0.08,0,0.17-0.01,0.26-0.03
		c0.7-0.11,1.4-0.17,2.11-0.16c1.82,0,3.88,0.33,6.11,0.99c1.78,0.53,3.36,0.69,4.67,0.78L80,71.86c-1.46-0.35-2.89-0.8-4.28-1.36
		c-2.03-0.8-3.95-1.3-5.71-1.48c-0.92-0.05-1.84-0.02-2.75,0.11l-0.07,0.01c-0.04,0-0.07,0.01-0.1,0.02
		c-0.41,0.07-0.82,0.18-1.22,0.32C65.87,69.48,66.06,70.35,66.85,70.35 M66.85,66.06c0.08,0,0.17-0.01,0.26-0.03
		c0.7-0.11,1.4-0.17,2.11-0.16c1.82,0,3.88,0.33,6.11,0.99c1.33,0.39,2.89,0.65,4.66,0.78l0.01-0.07c-1.46-0.35-2.88-0.8-4.28-1.36
		c-2.04-0.8-3.95-1.3-5.71-1.49c-0.92-0.05-1.84-0.01-2.76,0.11l-0.07,0.01l-0.1,0.02c-0.41,0.07-0.82,0.18-1.21,0.32
		C65.87,65.2,66.06,66.06,66.85,66.06 M37.29,98.39c0.1,0.01,0.21,0.01,0.33,0.01h0.14c3.42-0.16,4.43-1.32,4.42-1.33
		c-0.01-0.01-0.03-0.02-0.05-0.02h0c-0.73,0.17-1.48,0.24-1.76,0.27c-0.94,0.12-1.84,0.18-2.67,0.18c-1.8,0-2.86-0.29-3.33-0.47
		l-0.13-0.04l-0.05,0.01c-0.01,0.01-0.02,0.03-0.02,0.04c0,0.01,0.15,0.95,1.34,1.17c0.64,0.13,0.76,0.14,1.66,0.18L37.29,98.39z
		 M35.51,85.2c0.64,0.13,0.76,0.14,1.65,0.18l0.12,0c0.11,0.01,0.22,0.01,0.33,0.01l0.14,0c3.42-0.16,4.43-1.32,4.42-1.33
		c-0.01-0.01-0.02-0.02-0.05-0.02h0c-0.58,0.13-1.17,0.22-1.76,0.26c-0.94,0.13-1.84,0.19-2.67,0.19c-1.79,0-2.86-0.3-3.33-0.47
		l-0.13-0.04l-0.05,0.01c-0.01,0.01-0.02,0.03-0.01,0.04C34.18,84.03,34.32,84.97,35.51,85.2 M35.51,93.87
		c0.64,0.13,0.76,0.14,1.65,0.18l0.12,0c0.11,0,0.22,0.01,0.33,0.01h0.14c3.42-0.16,4.43-1.32,4.42-1.33
		c-0.01-0.01-0.02-0.03-0.05-0.03h0c-0.73,0.17-1.47,0.24-1.76,0.27c-0.94,0.12-1.84,0.19-2.67,0.19c-1.79,0-2.86-0.29-3.33-0.47
		l-0.13-0.04l-0.05,0.01c-0.01,0.01-0.02,0.03-0.01,0.04C34.18,92.7,34.32,93.64,35.51,93.87 M35.51,72.19
		c0.64,0.13,0.76,0.14,1.65,0.17l0.12,0.01c0.11,0.01,0.22,0.01,0.33,0.01h0.14c3.42-0.16,4.43-1.32,4.42-1.33
		c-0.01-0.01-0.02-0.02-0.05-0.02h0c-0.58,0.13-1.17,0.22-1.76,0.26c-0.94,0.12-1.84,0.19-2.67,0.19c-1.79,0-2.86-0.3-3.33-0.47
		l-0.13-0.04l-0.05,0.01c-0.01,0.01-0.02,0.03-0.01,0.04C34.18,71.02,34.32,71.96,35.51,72.19 M35.51,89.53
		c0.64,0.13,0.76,0.14,1.65,0.17l0.12,0.01c0.11,0.01,0.22,0.01,0.33,0.01h0.14c3.42-0.16,4.43-1.32,4.42-1.33
		c-0.01-0.01-0.02-0.02-0.05-0.02h0c-0.58,0.13-1.17,0.22-1.76,0.26c-0.94,0.12-1.84,0.19-2.67,0.19c-1.79,0-2.86-0.3-3.33-0.47
		l-0.13-0.04l-0.05,0.01c-0.01,0.01-0.02,0.03-0.01,0.04C34.18,88.37,34.32,89.31,35.51,89.53 M35.51,80.86
		c0.64,0.13,0.76,0.14,1.65,0.17l0.12,0.01c0.11,0.01,0.22,0.01,0.33,0.01c0.05,0,0.09,0,0.14,0c3.42-0.15,4.43-1.31,4.42-1.33
		c-0.01-0.01-0.02-0.02-0.05-0.02h0c-0.58,0.13-1.17,0.22-1.76,0.26c-0.88,0.12-1.77,0.18-2.67,0.19c-1.79,0-2.86-0.29-3.33-0.47
		l-0.13-0.04l-0.05,0.01c-0.01,0.01-0.02,0.03-0.01,0.04C34.18,79.7,34.32,80.63,35.51,80.86 M35.51,76.52
		c0.64,0.13,0.76,0.14,1.65,0.18l0.12,0.01c0.11,0.01,0.22,0.01,0.33,0.01l0.14,0c3.42-0.15,4.43-1.32,4.42-1.33
		c-0.01-0.01-0.02-0.02-0.05-0.02h0c-0.58,0.13-1.17,0.22-1.76,0.26c-0.88,0.12-1.77,0.18-2.67,0.19c-1.79,0-2.86-0.29-3.33-0.47
		l-0.13-0.04l-0.05,0.01c-0.01,0.01-0.02,0.03-0.01,0.04C34.18,75.36,34.32,76.3,35.51,76.52"/>
	<path class="st0" d="M103.68,73.66h-3.67v-2.28h0.02l2-1.74h-4.6v-2.06h2.58v-2.36h3.67C103.68,65.22,103.68,73.66,103.68,73.66z
		 M103.68,88.5h-3.67v-2.28h0.02l2-1.74h-4.6v-2.06h2.58v-2.36h3.67C103.68,80.06,103.68,88.5,103.68,88.5z M103.68,103.34h-3.67
		v-2.28h0.02l2-1.74h-4.6v-2.05h2.58v-2.37h3.67L103.68,103.34L103.68,103.34z M96.12,109.92H68.21c-0.74,0.05-1.49-0.02-2.57,0.82
		c-0.91,0.83-2.68,2.01-5.62,2.15c-3.43,0.17-5.61-1.34-6.61-2.26c-0.84-0.59-1.47-0.64-2.07-0.67H23.98V62.29h4.3l-0.17,0.2v42.04
		l-1.23,1.53v-42.1l-1.27,1.53l0.07,42.47h26.68c1.32,0.05,1.9,0.69,2.4,1.11c0.83,0.71,2.36,1.49,4.91,1.49
		c2.1,0,3.49-0.61,4.37-1.25c0.05-0.01,0.1-0.03,0.15-0.06c0.55-0.33,1.04-1.12,2.37-1.29h27.86l-0.01-42.22l-1.34-1.74v42.06
		l-1.23-1.53V62.42l-0.1-0.13h4.39C96.12,62.29,96.12,109.92,96.12,109.92z M29.49,60.65l1.23-1.53v42.17l-1.23,1.53L29.49,60.65
		L29.49,60.65z M32.17,58.51c5.09,2.55,11.9-0.9,17.88-1.45c4.73-0.43,7.24,1.62,8.14,2.58v2.69c-0.62-0.46-1.47-0.89-2.63-1.29
		c-0.33-0.09-1.33-0.37-2.27-0.37c-0.26,0-0.49,0.02-0.71,0.04c-0.04,0.01-0.05,0.02-0.01,0.03c0.24,0.04,0.69,0.12,1.25,0.31
		l0.06,0.02c2.32,0.85,3.65,2.15,4.3,2.94v2.58c-0.52-0.37-1.31-0.79-2.64-1.24c-0.32-0.08-1.28-0.34-2.21-0.34
		c-0.28,0-0.53,0.02-0.75,0.05c-0.04,0-0.06,0.03,0.01,0.04l0.04,0.01c0.23,0.03,0.64,0.1,1.19,0.27l0.06,0.02
		c2.29,0.77,3.65,2.1,4.31,2.89v2.58c-0.6-0.42-1.46-0.81-2.65-1.2c-0.7-0.19-1.41-0.3-2.14-0.32c-0.28,0-0.54,0.02-0.78,0.05
		c-0.06,0.01-0.07,0.03-0.01,0.04c0.25,0.03,0.67,0.1,1.18,0.26l0.2,0.06c2.32,0.87,3.59,2.06,4.2,2.77v2.58
		c-0.59-0.4-1.44-0.77-2.65-1.15c-0.29-0.07-1.18-0.29-2.06-0.29c-0.29,0-0.59,0.02-0.88,0.07c-0.04,0.01-0.06,0.03,0.03,0.04
		c0.22,0.03,0.64,0.08,1.18,0.24l0.28,0.08c2.21,0.78,3.49,1.97,4.1,2.69v2.57c-0.59-0.39-1.44-0.74-2.65-1.11
		c-0.65-0.16-1.31-0.24-1.98-0.26c-0.36,0-0.69,0.03-0.97,0.09c-0.04,0.01-0.05,0.03-0.01,0.03l0.13,0.01
		c0.25,0.03,0.62,0.07,1.12,0.21l0.05,0.02c0.69,0.26,2.82,1.16,4.31,2.76v2.5c-0.59-0.38-1.43-0.72-2.64-1.07
		c-0.63-0.15-1.27-0.22-1.91-0.24c-0.35,0-0.7,0.03-1.05,0.1c-0.04,0.01-0.05,0.02,0,0.03c0.23,0.01,0.68,0.06,1.24,0.21l0.05,0.01
		c1.76,0.51,3.27,1.45,4.31,2.65v2.57c-0.59-0.38-1.44-0.71-2.65-1.04c-0.6-0.13-1.22-0.2-1.83-0.21c-0.42,0-0.78,0.04-1.11,0.1
		c-0.04,0.01-0.05,0.03-0.01,0.03c0.24,0.01,0.68,0.05,1.23,0.19l0.05,0.01c1.66,0.49,3.15,1.42,4.32,2.7v2.47
		c-0.59-0.38-1.43-0.7-2.64-1.01c-0.58-0.12-1.16-0.18-1.75-0.19c-0.4,0-0.8,0.04-1.19,0.12c-0.04,0.01-0.09,0.03-0.03,0.04
		c0.19,0.01,0.65,0.03,1.24,0.17l0.05,0.01c0.75,0.13,3.13,1.24,4.31,2.47v2.65c-0.59-0.38-1.44-0.7-2.67-1.01
		c-0.55-0.1-1.1-0.16-1.66-0.16c-0.42,0-0.85,0.04-1.26,0.13c-0.04,0.01-0.04,0.04,0.04,0.04c0.22,0.01,0.63,0.02,1.16,0.15
		l0.06,0.01c1.99,0.42,3.53,1.67,4.33,2.54v3.15c-1.91-1.34-5.64-3.52-13.69-0.94c-6.3,2.02-11.42,0.99-12.33,0.23L32.17,58.51
		L32.17,58.51z M61.29,59.7c0.97-0.93,3.75-3.08,8.58-2.64c5.98,0.54,12.78,4,17.88,1.45v42.04c-0.91,0.76-6.02,1.79-12.33-0.23
		c-8.72-2.79-12.38,0-14.13,1.26L61.29,59.7L61.29,59.7z M89.23,59.12l1.23,1.54v42.17l-1.23-1.53
		C89.23,101.29,89.23,59.12,89.23,59.12z M22.58,70.82h-2.26c0.02,0.48,0.03,1.26-0.01,1.65c-0.11,1.09-1.27,1.83-2.29,1.83
		c-0.56,0.01-1.09-0.22-1.45-0.64c-0.71-0.84-0.05-2.26,0.2-2.69c-0.38,0.13-0.77,0.19-1.17,0.2c-0.67,0-1.81-0.27-1.9-2.09
		c0.09-1.85,1.23-2.12,1.9-2.12c0.35,0,0.75,0.07,1.17,0.2c-0.25-0.42-0.91-1.85-0.2-2.68c0.36-0.42,0.9-0.66,1.45-0.64
		c1.01,0,2.18,0.74,2.29,1.83c0.04,0.38,0.03,1.26,0.01,1.71h2.26L22.58,70.82L22.58,70.82z M22.58,85.56h-2.26
		c0.02,0.48,0.03,1.25-0.01,1.65c-0.11,1.09-1.27,1.83-2.29,1.83c-0.56,0.01-1.09-0.22-1.45-0.64c-0.71-0.84-0.05-2.26,0.2-2.68
		c-0.38,0.13-0.77,0.19-1.17,0.2c-0.67,0-1.81-0.27-1.9-2.09c0.09-1.85,1.23-2.12,1.9-2.12c0.35,0,0.75,0.07,1.17,0.2
		c-0.25-0.42-0.91-1.85-0.2-2.68c0.36-0.42,0.9-0.65,1.45-0.64c1.01,0,2.17,0.73,2.28,1.82c0.04,0.34,0.03,1.24,0.01,1.71h2.26
		L22.58,85.56L22.58,85.56z M22.58,100.31h-2.26c0.02,0.48,0.03,1.26-0.01,1.65c-0.11,1.09-1.27,1.83-2.29,1.83
		c-0.56,0.01-1.09-0.22-1.45-0.64c-0.71-0.84-0.05-2.26,0.2-2.69c-0.38,0.13-0.77,0.2-1.17,0.2c-0.67,0-1.81-0.27-1.9-2.09
		c0.08-1.75,1.08-2.12,1.9-2.12c0.36,0,0.75,0.07,1.17,0.2c-0.25-0.42-0.91-1.85-0.2-2.69c0.36-0.42,0.89-0.66,1.45-0.64
		c1.01,0,2.18,0.73,2.29,1.83c0.04,0.39,0.03,1.26,0.01,1.7h2.26L22.58,100.31L22.58,100.31z M101.67,44.69
		c-4.3,0.04-7.68,1.04-10.95,2.02c-2.96,0.88-6.03,1.79-9.73,1.91c-2.84,0.1-5.4-0.64-8.38-1.49l-0.04-0.01
		c-3.52-1.01-7.52-2.16-12.87-2.16h-0.29c-4.02,0-7.4,0.89-10.99,1.83c-3.21,0.84-6.52,1.71-10.28,1.83
		c-3.03,0.1-6.09-0.7-9.32-1.56l-0.02-0.01c-3.64-0.96-7.41-1.96-11.88-1.97h-0.12c-2.78,0-5.15,0.31-7.13,0.7v43.83
		c0,8.88,1.46,18.64,12.04,29.79c4.55,4.8,18.79,15.51,37.85,24.08c10.58-4.83,29.46-15.25,37.83-24.08
		c10.58-11.16,12.04-20.91,12.04-29.79V45.63c-2.51-0.61-5.08-0.92-7.66-0.93C101.76,44.69,101.67,44.69,101.67,44.69z"/>
</g>
<g>
	<path class="st0" d="M139.69,29.4V13.58c0-1.21-0.78-1.57-4.07-1.68v-1.25h11.55v1.25c-3.48,0.12-3.76,0.39-3.76,1.68v15.19
		c0,4.58,3.1,6.58,7.29,6.58c2.11,0,3.76-0.74,4.97-1.96c1.41-1.41,2-2.62,2-5.56V16.79c0-3.56-0.82-4.46-4.54-5.01v-1.14h9.94v1.14
		c-3.48,0.62-3.84,1.45-3.84,5.01v12.21c0,4.11-3.52,8.03-9.75,8.03C143.48,37.04,139.69,33.94,139.69,29.4 M171.59,14.72h-0.04
		v15.5c0,3.6,0.47,4.5,4.23,5.05v1.14h-9.91v-1.14c3.49-0.59,4.12-1.45,4.12-5.05V14.56c0-1.45-0.94-2.59-4.11-2.66v-1.25h7.33
		l14.56,20h0.04V16.79c0-3.56-0.82-4.46-4.54-5.01v-1.14h9.94v1.14c-3.48,0.62-3.84,1.45-3.84,5.01v20.24h-1.53L171.59,14.72
		L171.59,14.72z M196.26,35.16c3.29-0.12,4.07-0.47,4.07-1.69V13.58c0-1.21-0.78-1.57-4.07-1.69v-1.25h11.86v1.26
		c-3.29,0.12-4.07,0.47-4.07,1.68v19.89c0,1.21,0.78,1.57,4.07,1.68v1.25h-11.86C196.26,36.41,196.26,35.16,196.26,35.16z
		 M215.13,14.56c-0.63-1.68-1.29-2.19-4.19-2.78v-1.14h11.47v1.14c-3.41,0.2-4,0.9-3.45,2.47l6.3,17.97h0.16l5.8-15.42
		c1.44-3.88,0.9-4.46-2.78-5.01v-1.14h9.28v1.14c-2.66,0.55-3.37,1.61-4.66,4.97l-7.91,20.28h-1.76L215.13,14.56L215.13,14.56z
		 M239.71,35.16c3.29-0.12,4.07-0.47,4.07-1.69V13.58c0-1.21-0.78-1.57-4.07-1.69v-1.25h20.91l0.12,7.2l-1.21,0.04
		c-1.37-4.39-2.08-5.8-6.46-5.8h-5.56v10.22h2.31c2.9,0,3.99-0.27,4.97-4.35h1.06v10.18h-1.06c-0.98-4.07-2.08-4.34-4.97-4.34h-2.31
		v11.12h5.56c5.17,0,6.43-2.03,7.79-6.58l1.22,0.04l-0.2,8.02h-22.16V35.16z M275.54,22.82c4.93,0,6.15-2.15,6.15-5.8
		c0-3.41-1.72-4.97-6.42-4.97h-2.74v10.77L275.54,22.82L275.54,22.82z M272.52,33.47c0,1.29,0.55,1.57,4.03,1.68v1.25h-11.82v-1.25
		c3.29-0.12,4.07-0.47,4.07-1.69V13.58c0-1.22-0.78-1.57-4.07-1.69v-1.25h10.81c7.83,0,10.14,3.01,10.14,6.26
		c0,3.13-1.76,5.4-6.54,6.46v0.12c4.74,0.47,5.32,2.31,5.79,5.17l0.59,3.72c0.35,2.27,1.29,2.82,3.99,3.02v1.25
		c-0.27,0-1.02,0.04-1.29,0.04c-5.52,0-6.42-1.14-6.7-4.7l-0.23-3.02c-0.31-3.84-1.92-4.74-5.95-4.74h-2.82
		C272.52,24.23,272.52,33.47,272.52,33.47z M291.86,28.81h1.22c2.03,4.54,4.62,6.81,7.87,6.81c3.92,0,5.52-2.66,5.52-4.97
		c0-2.89-2.08-3.95-6.81-5.63c-3.56-1.25-7.32-2.31-7.32-7.13c0-4.9,3.84-7.87,8.69-7.87c2.19,0,3.76,0.43,5.01,0.9l1.25-1.1h0.86
		v7.52h-1.21c-1.25-3.64-3.48-5.91-6.54-5.91c-2.66,0-4.74,1.72-4.74,4.77c0,2.82,2.27,3.72,6.46,5.13
		c3.57,1.21,7.24,2.43,7.24,7.28c0,3.88-2.27,8.42-8.77,8.42c-2.11,0-4.35-0.47-5.84-1.09l-1.96,1.25h-0.94
		C291.86,37.19,291.86,28.81,291.86,28.81z M313.08,35.16c3.29-0.12,4.07-0.47,4.07-1.69V13.58c0-1.21-0.78-1.57-4.07-1.69v-1.25
		h11.86v1.26c-3.29,0.12-4.07,0.47-4.07,1.68v19.89c0,1.21,0.78,1.57,4.07,1.68v1.25h-11.86V35.16z M333.28,35.16
		c3.49-0.12,4.35-0.47,4.35-1.69V12.06h-1.96c-3.76,0-4.46,2.04-6.03,6.69l-1.21-0.08l0.24-8.03h21.69l0.27,8.03l-1.21,0.08
		c-1.29-4.38-2.15-6.69-6.03-6.69h-2.03v21.42c0,1.21,0.86,1.57,4.35,1.68v1.25h-12.41L333.28,35.16L333.28,35.16z M371.07,16.09
		c1.76-3.01,1.68-3.84-1.76-4.3v-1.14h8.89v1.14c-2.23,0.47-3.17,0.98-4.93,3.91l-5.79,9.59v8.18c0,1.21,0.78,1.57,4.07,1.69v1.25
		h-11.86v-1.25c3.29-0.12,4.07-0.47,4.07-1.69v-7.75l-6.65-11.55c-0.86-1.49-1.45-1.96-3.8-2.39v-1.14h11.08v1.14
		c-3.44,0.19-3.84,1.06-3.01,2.54l5.25,9.36L371.07,16.09z M156.95,60.05c0-8.38-3.49-12.1-8.22-12.1c-4.74,0-7.91,3.72-7.91,12.1
		c0,8.42,3.48,12.1,8.22,12.1S156.95,68.47,156.95,60.05 M136.59,60.13c0-8.26,5.48-13.58,12.29-13.58
		c7.01,0,12.29,5.17,12.29,13.43c0,8.3-5.48,13.59-12.29,13.59C141.88,73.56,136.59,68.43,136.59,60.13 M163.21,71.68
		c3.29-0.11,4.08-0.47,4.08-1.68V50.11c0-1.21-0.78-1.57-4.08-1.69v-1.25h20.83l0.27,7.4l-1.21,0.04c-1.33-4.43-2.62-5.99-7.01-5.99
		H171v10.53h2.59c2.89,0,3.56-0.39,4.62-4.27h1.06v10.1h-1.06c-0.98-4.07-1.72-4.34-4.62-4.34H171V70c0,1.29,0.82,1.57,4.31,1.68
		v1.25h-12.1V71.68L163.21,71.68z M213.41,51.56c-0.67-2.04-1.41-2.86-3.92-3.25v-1.14h10.65v1.14c-3.21,0.2-3.6,1.06-3.17,2.47
		l5.29,16.99h0.16l4.74-14.45c1.29-3.88,0.9-4.46-2.78-5.01v-1.14h9.48v1.14c-2.66,0.55-3.8,1.72-4.9,4.97l-6.73,20.28h-1.76
		l-5.6-17.46l-6.65,17.46h-1.76l-6.85-22.47c-0.55-1.76-1.22-2.19-4.11-2.78v-1.14h10.77v1.14c-3.01,0.2-3.25,0.98-2.82,2.47
		l4.93,17.03h0.12l5.52-14.37L213.41,51.56z M254.67,60.05c0-8.38-3.48-12.1-8.22-12.1c-4.74,0-7.91,3.72-7.91,12.1
		c0,8.42,3.48,12.1,8.22,12.1C251.5,72.15,254.67,68.47,254.67,60.05 M234.31,60.13c0-8.26,5.48-13.58,12.29-13.58
		c7.01,0,12.29,5.17,12.29,13.43c0,8.3-5.48,13.59-12.29,13.59C239.6,73.56,234.31,68.43,234.31,60.13 M261.33,71.68
		c3.29-0.11,4.07-0.47,4.07-1.68V50.11c0-1.21-0.78-1.57-4.07-1.69v-1.25h11.86v1.26c-3.29,0.12-4.07,0.47-4.07,1.68v21.34h4.27
		c5.17,0,6.38-1.84,7.87-7.16l1.21,0.08l-0.27,8.58h-20.87L261.33,71.68L261.33,71.68z M285.79,71.68c3.29-0.11,4.07-0.47,4.07-1.68
		V50.11c0-1.21-0.78-1.57-4.07-1.69v-1.25h11.86v1.26c-3.28,0.12-4.07,0.47-4.07,1.68v21.34h4.27c5.17,0,6.38-1.84,7.87-7.16
		l1.21,0.08l-0.27,8.58h-20.87L285.79,71.68L285.79,71.68z M330.23,60.05c0-8.38-3.49-12.1-8.22-12.1c-4.74,0-7.91,3.72-7.91,12.1
		c0,8.42,3.48,12.1,8.22,12.1C327.06,72.15,330.23,68.47,330.23,60.05 M309.87,60.13c0-8.26,5.48-13.58,12.29-13.58
		c7.01,0,12.3,5.17,12.3,13.43c0,8.3-5.48,13.59-12.3,13.59C315.16,73.56,309.87,68.43,309.87,60.13 M342.01,51.24h-0.04v15.51
		c0,3.6,0.47,4.5,4.23,5.05v1.13h-9.91V71.8c3.49-0.59,4.11-1.45,4.11-5.05V51.09c0-1.45-0.94-2.59-4.11-2.66v-1.25h7.32l14.56,20
		h0.04V53.32c0-3.56-0.82-4.46-4.54-5.01v-1.14h9.94v1.14c-3.48,0.62-3.83,1.45-3.83,5.01v20.24h-1.53
		C358.26,73.56,342.01,51.24,342.01,51.24z M364.88,60.13c0-8.06,6.14-13.58,13.35-13.58c2.39,0,4.97,0.67,6.27,1.25l1.06-1.25h1.21
		v7.56h-1.17c-1.57-4.15-4.19-6.15-7.75-6.15c-4.31,0-8.73,3.91-8.73,12.1c0,8.14,4.78,12.1,9.04,12.1c2.39,0,4.15-0.47,5.25-1.33
		v-7.28c0-1.22-0.78-1.57-4.07-1.68V60.6h10.37v1.25c-2.39,0.12-2.58,0.39-2.58,1.68v8.03c-2.23,1.21-6.11,1.99-8.65,1.99
		C371.22,73.56,364.88,69.02,364.88,60.13 M413.5,60.05c0-8.38-3.48-12.1-8.22-12.1c-4.74,0-7.91,3.72-7.91,12.1
		c0,8.42,3.49,12.1,8.22,12.1C410.33,72.15,413.5,68.47,413.5,60.05 M393.14,60.13c0-8.26,5.48-13.58,12.29-13.58
		c7.01,0,12.3,5.17,12.3,13.43c0,8.3-5.48,13.59-12.3,13.59C398.43,73.56,393.14,68.43,393.14,60.13 M425.48,51.24h-0.04v15.51
		c0,3.6,0.47,4.5,4.23,5.05v1.13h-9.91V71.8c3.49-0.59,4.11-1.45,4.11-5.05V51.09c0-1.45-0.94-2.59-4.11-2.66v-1.25h7.32l14.56,20
		h0.04V53.32c0-3.56-0.82-4.46-4.54-5.01v-1.14h9.94v1.14c-3.48,0.62-3.84,1.45-3.84,5.01v20.24h-1.53L425.48,51.24z M449.01,60.13
		c0-8.06,6.14-13.58,13.35-13.58c2.39,0,4.97,0.67,6.26,1.25l1.06-1.25h1.21v7.56h-1.17c-1.57-4.15-4.19-6.15-7.75-6.15
		c-4.3,0-8.73,3.91-8.73,12.1c0,8.14,4.78,12.1,9.04,12.1c2.39,0,4.15-0.47,5.25-1.33v-7.28c0-1.22-0.78-1.57-4.07-1.68V60.6h10.37
		v1.25c-2.39,0.12-2.58,0.39-2.58,1.68v8.03c-2.23,1.21-6.11,1.99-8.65,1.99C455.36,73.56,449.01,69.02,449.01,60.13 M150.37,98.38
		L146.81,88h-0.15l-3.99,10.37H150.37z M150.88,99.79h-8.77l-1.49,3.84c-1.45,3.68-1.26,4.15,2.15,4.7v1.14h-8.49v-1.14
		c2.66-0.55,3.52-2.08,4.85-5.44l7.87-19.58h1.76l7.91,21.81c0.71,1.96,1.49,2.82,4.39,3.21v1.14h-11.55v-1.14
		c3.41-0.19,4.03-0.94,3.29-3.01L150.88,99.79z M162.86,102.45V86.63c0-1.21-0.78-1.57-4.07-1.68V83.7h11.55v1.25
		c-3.48,0.12-3.76,0.39-3.76,1.68v15.19c0,4.58,3.09,6.58,7.29,6.58c2.11,0,3.76-0.74,4.97-1.96c1.41-1.41,2-2.62,2-5.56V89.84
		c0-3.56-0.82-4.46-4.54-5.01V83.7h9.95v1.14c-3.49,0.62-3.84,1.45-3.84,5.01v12.21c0,4.11-3.52,8.03-9.75,8.03
		C166.66,110.08,162.86,106.99,162.86,102.45 M187.92,101.86h1.21c2.04,4.54,4.62,6.82,7.87,6.82c3.92,0,5.52-2.66,5.52-4.97
		c0-2.9-2.07-3.95-6.81-5.64c-3.56-1.25-7.32-2.31-7.32-7.13c0-4.89,3.84-7.87,8.69-7.87c2.19,0,3.76,0.43,5.01,0.9l1.25-1.1h0.86
		v7.52h-1.21c-1.25-3.64-3.48-5.91-6.54-5.91c-2.66,0-4.74,1.72-4.74,4.78c0,2.82,2.27,3.72,6.46,5.13
		c3.56,1.22,7.24,2.43,7.24,7.28c0,3.88-2.27,8.42-8.77,8.42c-2.11,0-4.35-0.47-5.84-1.09l-1.96,1.25h-0.94L187.92,101.86
		L187.92,101.86z M213.48,108.2c3.49-0.12,4.35-0.47,4.35-1.68V85.11h-1.96c-3.76,0-4.46,2.04-6.03,6.69l-1.21-0.08l0.24-8.03h21.69
		l0.27,8.03l-1.21,0.08c-1.29-4.38-2.15-6.69-6.03-6.69h-2.04v21.42c0,1.21,0.86,1.57,4.35,1.69v1.25h-12.41L213.48,108.2
		L213.48,108.2z M244.73,95.87c4.93,0,6.14-2.15,6.14-5.8c0-3.41-1.72-4.97-6.42-4.97h-2.74v10.77H244.73z M241.71,106.52
		c0,1.29,0.55,1.57,4.03,1.69v1.25h-11.82v-1.25c3.29-0.12,4.07-0.47,4.07-1.69V86.63c0-1.21-0.78-1.57-4.07-1.68V83.7h10.8
		c7.83,0,10.14,3.01,10.14,6.26c0,3.13-1.76,5.4-6.54,6.46v0.12c4.74,0.47,5.32,2.31,5.79,5.17l0.59,3.72
		c0.35,2.27,1.29,2.82,3.99,3.01v1.25c-0.27,0-1.02,0.04-1.29,0.04c-5.52,0-6.42-1.13-6.7-4.7l-0.23-3.02
		c-0.31-3.84-1.92-4.74-5.95-4.74h-2.82C241.71,97.28,241.71,106.52,241.71,106.52z M276.16,98.38L272.6,88h-0.15l-4,10.37
		C268.45,98.38,276.16,98.38,276.16,98.38z M276.67,99.79h-8.77l-1.49,3.84c-1.45,3.68-1.25,4.15,2.15,4.7v1.14h-8.49v-1.14
		c2.66-0.55,3.52-2.08,4.85-5.44l7.87-19.58h1.76l7.91,21.81c0.71,1.96,1.49,2.82,4.39,3.21v1.14H275.3v-1.14
		c3.41-0.19,4.03-0.94,3.29-3.01C278.59,105.31,276.67,99.79,276.67,99.79z M288.69,108.2c3.29-0.12,4.07-0.47,4.07-1.68V86.63
		c0-1.21-0.78-1.57-4.07-1.68V83.7h11.86v1.25c-3.29,0.12-4.07,0.47-4.07,1.69v21.34h4.27c5.17,0,6.38-1.84,7.87-7.17l1.21,0.08
		l-0.27,8.58h-20.87V108.2z M312.18,108.2c3.29-0.12,4.07-0.47,4.07-1.68V86.63c0-1.21-0.78-1.57-4.07-1.68V83.7h11.86v1.25
		c-3.29,0.12-4.07,0.47-4.07,1.69v19.89c0,1.21,0.78,1.57,4.07,1.69v1.25h-11.86L312.18,108.2L312.18,108.2z M342.99,98.38
		L339.43,88h-0.15l-4,10.37C335.28,98.38,342.99,98.38,342.99,98.38z M343.5,99.79h-8.77l-1.49,3.84c-1.45,3.68-1.25,4.15,2.15,4.7
		v1.14h-8.5v-1.14c2.66-0.55,3.52-2.08,4.86-5.44l7.87-19.58h1.76l7.91,21.81c0.71,1.96,1.49,2.82,4.39,3.21v1.14h-11.55v-1.14
		c3.41-0.19,4.03-0.94,3.29-3.01L343.5,99.79L343.5,99.79z"/>
</g>
</svg>
